# xmcd
#
# Track frame offsets:
#	150
#	11919
#	25698
#	36100
#	48986
#	67948
#	78476
#	96339
#	107680
#	120984
#	130137
#	145202
#	163148
#	180811
#	193156
#	209854
#	221765
#
# Disc length: 3139 seconds
#
# Revision: 0
# Processed by: cddbd v1.5.2PL0 Copyright (c) Steve Scherf et al.
# Submitted via: dBpowerAMP V4.0
#
DISCID=f00c4111
DTITLE=Heidi Hauge - Julekveld på landet
DYEAR=2007
DGENRE=Country
TTITLE0=Christmas tree
TTITLE1=Country Christmas
TTITLE2=With bells on
TTITLE3=Joy to the world
TTITLE4=Down by the river
TTITLE5=Rockin` around the christmas tree
TTITLE6=Winter wonderland
TTITLE7=The greatest christmasgift of all
TTITLE8=Silver bells
TTITLE9=Mr and Mrs Santa Claus
TTITLE10=Christmas party
TTITLE11=O holy night
TTITLE12=Santa Claus (I still believe in you)
TTITLE13=Silent night
TTITLE14=Christmas without you
TTITLE15=Juletre
TTITLE16=Julekveld på landet
EXTD=
EXTT0=
EXTT1=
EXTT2=
EXTT3=
EXTT4=
EXTT5=
EXTT6=
EXTT7=
EXTT8=
EXTT9=
EXTT10=
EXTT11=
EXTT12=
EXTT13=
EXTT14=
EXTT15=
EXTT16=
PLAYORDER=
